<?xml version="1.0" encoding="UTF-8" standalone="no"?>
<!-- Created with Inkscape (http://www.inkscape.org/) -->

<svg
   xmlns:dc="http://purl.org/dc/elements/1.1/"
   xmlns:cc="http://creativecommons.org/ns#"
   xmlns:rdf="http://www.w3.org/1999/02/22-rdf-syntax-ns#"
   xmlns:svg="http://www.w3.org/2000/svg"
   xmlns="http://www.w3.org/2000/svg"
   xmlns:sodipodi="http://sodipodi.sourceforge.net/DTD/sodipodi-0.dtd"
   xmlns:inkscape="http://www.inkscape.org/namespaces/inkscape"
   width="600"
   height="400"
   viewBox="0 0 600.00005 399.99998"
   id="svg2"
   version="1.1"
   inkscape:version="0.91 r13725"
   sodipodi:docname="play.svg">
  <defs
     id="defs4">
    <inkscape:path-effect
       effect="spiro"
       id="path-effect4249"
       is_visible="true" />
    <inkscape:path-effect
       effect="spiro"
       id="path-effect4249-1"
       is_visible="true" />
    <inkscape:path-effect
       effect="spiro"
       id="path-effect4249-4"
       is_visible="true" />
    <inkscape:path-effect
       effect="spiro"
       id="path-effect4249-1-2"
       is_visible="true" />
  </defs>
  <sodipodi:namedview
     id="base"
     pagecolor="#ffffff"
     bordercolor="#666666"
     borderopacity="1.0"
     inkscape:pageopacity="0.0"
     inkscape:pageshadow="2"
     inkscape:zoom="1.1716112"
     inkscape:cx="107.68551"
     inkscape:cy="193.71743"
     inkscape:document-units="px"
     inkscape:current-layer="g4189"
     showgrid="false"
     units="px"
     inkscape:window-width="1366"
     inkscape:window-height="706"
     inkscape:window-x="-8"
     inkscape:window-y="-8"
     inkscape:window-maximized="1"
     inkscape:snap-bbox="true"
     inkscape:bbox-nodes="true"
     inkscape:snap-bbox-edge-midpoints="true"
     inkscape:snap-bbox-midpoints="true"
     inkscape:bbox-paths="true"
     inkscape:object-paths="true"
     inkscape:snap-intersection-paths="true"
     inkscape:snap-smooth-nodes="true"
     inkscape:snap-midpoints="true"
     inkscape:object-nodes="true"
     inkscape:snap-object-midpoints="true"
     inkscape:snap-center="true"
     inkscape:snap-page="true"
     inkscape:snap-grids="false"
     inkscape:snap-to-guides="false"
     inkscape:snap-global="true" />
  <metadata
     id="metadata7">
    <rdf:RDF>
      <cc:Work
         rdf:about="">
        <dc:format>image/svg+xml</dc:format>
        <dc:type
           rdf:resource="http://purl.org/dc/dcmitype/StillImage" />
        <dc:title />
      </cc:Work>
    </rdf:RDF>
  </metadata>
  <g
     inkscape:label="Layer 1"
     inkscape:groupmode="layer"
     id="layer1">
    <g
       id="spawnMenu"
       inkscape:label="#g4255"
       transform="translate(1.0000002,-652.56406)">
      <g
         id="g4189">
        <rect
           style="opacity:0.27399998;fill:#000000;fill-opacity:1;fill-rule:nonzero;stroke:none;stroke-width:3;stroke-linecap:butt;stroke-linejoin:round;stroke-miterlimit:4;stroke-dasharray:none;stroke-dashoffset:0;stroke-opacity:1"
           id="rect4136"
           width="113.28218"
           height="400"
           x="-1.9984014e-015"
           y="652.3623" />
        <rect
           inkscape:label="#rect4138"
           style="opacity:1;fill:#4d4d4d;fill-opacity:1;fill-rule:nonzero;stroke:none;stroke-width:3;stroke-linecap:butt;stroke-linejoin:round;stroke-miterlimit:4;stroke-dasharray:none;stroke-dashoffset:0;stroke-opacity:1"
           id="spawnMenuInOut"
           width="12.071051"
           height="400.20175"
           x="113.28218"
           y="652.3623" />
        <path
           style="fill:none;fill-rule:evenodd;stroke:#000000;stroke-width:0.28812498px;stroke-linecap:butt;stroke-linejoin:miter;stroke-opacity:1"
           d="M 113.28218,833.33471 125.35323,852.4632 113.28218,868.13086 113.28218,861.95687 119.31771,852.46318 113.28218,842.27515 Z"
           id="path4140"
           inkscape:connector-curvature="0"
           sodipodi:nodetypes="ccccccc" />
        <rect
           style="opacity:1;fill:#818181;fill-opacity:1;fill-rule:nonzero;stroke:#000000;stroke-width:1.93675005;stroke-linecap:butt;stroke-linejoin:round;stroke-miterlimit:4;stroke-dasharray:none;stroke-dashoffset:0;stroke-opacity:1"
           id="woodTab"
           width="58.625877"
           height="24.932131"
           x="-0.031625155"
           y="652.33063"
           inkscape:label="#rect4174" />
        <text
           xml:space="preserve"
           style="font-style:normal;font-weight:normal;font-size:18px;line-height:161.00000143%;font-family:Sans;text-align:center;letter-spacing:0px;word-spacing:0px;text-anchor:middle;fill:#000000;fill-opacity:1;stroke:none;stroke-width:1px;stroke-linecap:butt;stroke-linejoin:miter;stroke-opacity:1"
           x="29.215395"
           y="671.49835"
           id="text4176"
           sodipodi:linespacing="161%"><tspan
             sodipodi:role="line"
             id="tspan4178"
             x="29.215395"
             y="671.49835">Wood</tspan></text>
        <rect
           style="opacity:1;fill:#818181;fill-opacity:1;fill-rule:nonzero;stroke:#000000;stroke-width:1.82618833;stroke-linecap:butt;stroke-linejoin:round;stroke-miterlimit:4;stroke-dasharray:none;stroke-dashoffset:0;stroke-opacity:1"
           id="foodTab"
           width="51.893368"
           height="25.042694"
           x="60.475723"
           y="652.26556"
           inkscape:label="#rect4174-1" />
        <text
           xml:space="preserve"
           style="font-style:normal;font-weight:normal;font-size:18px;line-height:161.00000143%;font-family:Sans;text-align:center;letter-spacing:0px;word-spacing:0px;text-anchor:middle;fill:#000000;fill-opacity:1;stroke:none;stroke-width:1px;stroke-linecap:butt;stroke-linejoin:miter;stroke-opacity:1"
           x="86.356491"
           y="671.48859"
           id="text4176-0"
           sodipodi:linespacing="161%"><tspan
             sodipodi:role="line"
             id="tspan4178-1"
             x="86.356491"
             y="671.48859">Food</tspan></text>
        <g
           id="woodGroup"
           inkscape:label="#g4206">
          <g
             inkscape:label="#g4251"
             id="wood0">
            <rect
               style="opacity:1;fill:#4d4d4d;fill-opacity:1;fill-rule:nonzero;stroke:#000000;stroke-width:2;stroke-linecap:butt;stroke-linejoin:round;stroke-miterlimit:4;stroke-dasharray:none;stroke-dashoffset:0;stroke-opacity:1"
               id="rect4245"
               width="103.99674"
               height="73.354851"
               x="5.5642557"
               y="685.23114" />
            <path
               style="fill:none;fill-rule:evenodd;stroke:#000000;stroke-width:1px;stroke-linecap:butt;stroke-linejoin:miter;stroke-opacity:1"
               d="M 57.562619,758.58599 C 57.275819,754.23628 54.779541,750.08954 51.069831,747.80038 49.060324,746.56037 46.774193,745.86177 44.570034,745.01475 43.274546,744.51692 41.989408,743.95842 40.855865,743.15767 39.388914,742.12139 38.209989,740.69263 37.422813,739.07827 36.635636,737.4639 36.236925,735.66815 36.213153,733.87225 36.209056,733.56276 36.213153,733.25322 36.213153,732.9437 L 36.213153,731.08662 36.213153,727.37245 36.213153,724.58682 C 36.213153,724.27699 36.205588,723.96722 36.193302,723.65763 36.181017,723.34804 36.167899,723.03625 36.213153,722.72974 36.296067,722.16816 36.578073,721.65261 36.924318,721.20276 37.270562,720.75291 37.682355,720.3586 38.070237,719.94411 39.876306,718.01416 41.156584,715.65424 42.251911,713.24865 43.347237,710.84307 44.279297,708.36117 45.498576,706.01597 46.832358,703.45054 48.581997,700.98965 51.069831,699.51618 52.726324,698.53509 54.625463,698.04229 56.520912,697.70498 58.416361,697.36767 60.338746,697.17344 62.212339,696.73055 62.988677,696.54703 63.759896,696.32032 64.554827,696.25352 65.349758,696.18672 66.187447,696.29388 66.855051,696.73055 67.328809,697.04043 67.689779,697.49791 67.97405,697.98747 68.258321,698.47702 68.473004,699.00306 68.712136,699.51618 69.946779,702.1654 71.824313,704.4545 73.354848,706.94452 74.300159,708.48244 75.115465,710.10124 76.140475,711.58723 77.096411,712.97308 78.225406,714.22985 79.252195,715.56405 80.278984,716.89826 81.215673,718.33528 81.711729,719.94411 82.35775,722.03931 82.216283,724.31022 81.711729,726.44391 80.750239,730.50992 78.534956,734.16248 76.140475,737.58642 71.804337,743.7868 66.479979,749.7048 59.426712,752.44309 56.471709,753.59031 53.306927,754.1362 50.141288,754.30018 47.629091,754.43031 45.046277,754.31167 42.712949,753.37164 40.027774,752.28987 37.856258,750.18378 36.213153,747.80038 33.910716,744.46058 32.546134,740.55466 31.655655,736.59708 30.765176,732.63949 30.325192,728.59695 29.713356,724.58682 29.336775,722.11861 28.893872,719.65287 28.784814,717.15848 28.690169,714.99375 28.784814,712.82549 28.784814,710.65869 L 28.784814,708.8016 28.784814,705.08743 C 28.784814,704.62233 28.76987,704.15739 28.745614,703.69293 28.721359,703.22846 28.695622,702.75828 28.784814,702.30181 28.893361,701.74629 29.173856,701.23678 29.514264,700.78455 29.854672,700.33233 30.255941,699.93021 30.641898,699.51618 31.838601,698.23243 32.916361,696.80568 34.356068,695.80201 35.835754,694.77047 37.650109,694.24293 39.453765,694.26238 41.257421,694.28183 43.044144,694.84013 44.570034,695.80201 47.3737,697.56937 49.154499,700.52561 51.069831,703.23035 52.359552,705.05163 53.760038,706.81416 54.742254,708.81808 55.724471,710.822 56.265377,713.13927 55.712543,715.3014 55.367974,716.64901 54.623517,717.85589 53.855458,719.01557 51.422006,722.68981 48.639908,726.13862 45.498576,729.22953 40.875322,733.77858 35.212239,737.64518 28.784814,738.51496 26.969718,738.76058 25.105818,738.75994 23.323984,738.33571 21.542149,737.91148 19.842854,737.04725 18.570848,735.72933 17.605652,734.7293 16.904514,733.48854 16.470438,732.16821 16.036362,730.84789 15.864472,729.44898 15.886357,728.0593 15.930127,725.27996 16.734902,722.57152 17.642305,719.94411 21.119729,709.87512 26.529885,700.01385 35.28461,693.94492 38.056762,692.02322 41.207239,690.49416 44.570034,690.23075 46.42199,690.08569 48.283659,690.23075 50.141288,690.23075 L 55.712543,690.23075 62.212339,690.23075 C 62.677346,690.23075 63.142209,690.21668 63.606654,690.19383 64.0711,690.17098 64.540619,690.1467 64.997966,690.23075 65.556285,690.33336 66.074532,690.60011 66.53194,690.9363 66.989349,691.2725 67.391046,691.67777 67.783593,692.08784 70.827071,695.26717 73.434796,698.83047 76.140475,702.30181 79.581577,706.71668 83.24175,711.07613 85.425899,716.22994 85.808365,717.13242 86.144296,718.05818 86.354441,719.01557 86.688896,720.53929 86.697482,722.13647 86.354441,723.65828 85.884103,725.74482 84.770779,727.64147 83.421925,729.30143 82.073072,730.96138 80.486488,732.40936 78.926102,733.87225 76.296307,736.33773 73.715951,738.87046 70.845275,741.05074 67.974598,743.23102 64.779797,745.06444 61.283797,745.9433 55.860009,747.30678 50.132858,746.29604 44.570034,746.87184 43.019603,747.03232 41.422419,747.31261 39.927322,746.87184 38.963304,746.58764 38.104609,746.0164 37.354783,745.34718 36.604957,744.67795 35.952707,743.9085 35.28461,743.15767 33.402303,741.04227 31.372664,739.05222 29.644608,736.80904 27.916552,734.56587 26.480387,732.01995 25.999187,729.22953 25.683155,727.3969 25.774563,725.52128 25.86043,723.66358 25.946296,721.80588 25.999187,719.94671 25.999187,718.08703 L 25.999187,712.51577 C 25.999187,710.34764 25.736569,708.16814 25.999187,706.01597 26.269221,703.80303 27.264808,701.74641 28.37427,699.81273 29.483733,697.87905 30.727321,696.0087 31.570441,693.94492 31.786413,693.41627 31.976451,692.87421 32.256913,692.37676 32.537376,691.87931 32.920003,691.4211 33.427526,691.1593 33.986669,690.87088 34.645625,690.84545 35.271443,690.91011 35.897262,690.97477 36.5136,691.12288 37.141695,691.1593 37.7599,691.19515 38.380648,691.12221 38.99878,691.1593 39.905055,691.21367 40.788033,691.50568 41.585662,691.93936 42.383291,692.37304 43.098995,692.94588 43.75097,693.57772 45.05492,694.8414 46.108991,696.33887 47.355661,697.65909 49.67051,700.11051 52.612141,701.90541 55.712543,703.23035 56.551579,703.58891 57.40614,703.91592 58.212357,704.34319 59.018574,704.77046 59.782339,705.30582 60.355254,706.01597 61.057269,706.88614 61.448042,707.98559 62.212339,708.8016 62.511749,709.12127 62.86336,709.39129 63.140882,709.73014 63.581298,710.26788 63.808094,710.94316 64.069424,711.58723 64.438889,712.49781 64.898965,713.39518 64.997966,714.37286 65.029192,714.68123 65.023572,714.99251 64.997966,715.3014 64.846819,717.12476 63.97051,718.878 62.602853,720.09332 61.235195,721.30864 59.391108,721.97279 57.56262,721.90856"
               id="path4247"
               inkscape:path-effect="#path-effect4249"
               inkscape:original-d="M 57.562619,758.58599 C 55.398357,754.99079 53.971786,750.83158 51.069831,747.80038 49.439741,746.09769 46.71594,745.99017 44.570034,745.01475 43.309915,744.44197 41.77547,744.19222 40.855865,743.15767 39.092273,741.17363 36.975254,736.92065 36.213153,733.87225 36.138083,733.57197 36.213153,733.25322 36.213153,732.9437 36.213153,732.32468 36.213153,731.70565 36.213153,731.08662 36.213153,729.84856 36.213153,728.61051 36.213153,727.37245 36.213153,726.44391 36.213153,725.51536 36.213153,724.58682 36.213153,723.96779 35.983251,723.30449 36.213153,722.72974 36.627613,721.69359 37.571161,720.94226 38.070237,719.94411 42.301044,711.4825 39.241184,714.54878 45.498576,706.01597 47.186079,703.71483 48.747778,701.17479 51.069831,699.51618 55.578304,696.29584 57.763367,696.73055 62.212339,696.73055 63.75991,696.73055 65.432609,696.12093 66.855051,696.73055 67.880788,697.17015 68.112999,698.57468 68.712136,699.51618 70.279786,701.97963 71.824509,704.45772 73.354848,706.94452 74.300719,708.48156 75.164536,710.0691 76.140475,711.58723 77.950881,714.40342 80.5362,716.80937 81.711729,719.94411 82.472473,721.97276 82.136634,724.31938 81.711729,726.44391 80.713597,731.43457 79.148749,734.03118 76.140475,737.58642 71.131848,743.5057 66.768169,749.13944 59.426712,752.44309 56.548289,753.73838 53.292866,754.12509 50.141288,754.30018 47.649748,754.4386 44.974223,754.4269 42.712949,753.37164 40.127084,752.1649 37.796034,750.1747 36.213153,747.80038 31.242434,740.3443 30.929937,733.10289 29.713356,724.58682 29.360456,722.11652 28.950804,719.64834 28.784814,717.15848 28.640694,714.99668 28.784814,712.82528 28.784814,710.65869 28.784814,710.03966 28.784814,709.42063 28.784814,708.8016 28.784814,707.56355 28.784814,706.32549 28.784814,705.08743 28.784814,704.15889 28.491183,703.1827 28.784814,702.30181 29.137714,701.2431 29.915635,700.36348 30.641898,699.51618 31.781354,698.18681 32.899251,696.77322 34.356068,695.80201 37.767758,693.52755 40.997871,693.05419 44.570034,695.80201 47.17791,697.80807 49.095722,700.5982 51.069831,703.23035 54.336338,707.58569 56.87664,710.06296 55.712543,715.3014 55.41227,716.65263 54.674017,717.89935 53.855458,719.01557 51.254036,722.56296 48.609155,726.11896 45.498576,729.22953 39.179679,735.54843 36.864961,737.4376 28.784814,738.51496 24.896306,739.03343 21.047682,739.44458 18.570848,735.72933 15.737886,731.47989 16.352794,724.13502 17.642305,719.94411 20.803153,709.67135 26.710677,700.57024 35.28461,693.94492 37.922414,691.90662 41.335997,691.03926 44.570034,690.23075 46.371671,689.78034 48.284204,690.23075 50.141288,690.23075 51.998373,690.23075 53.855458,690.23075 55.712543,690.23075 57.879141,690.23075 60.04574,690.23075 62.212339,690.23075 63.140882,690.23075 64.117074,689.93712 64.997966,690.23075 66.056667,690.58365 67.026654,691.26782 67.783593,692.08784 70.767363,695.32026 73.544979,698.75007 76.140475,702.30181 79.432676,706.80692 82.516288,711.46876 85.425899,716.22994 85.936278,717.06511 86.233039,718.04436 86.354441,719.01557 86.546393,720.55119 87.046536,722.27409 86.354441,723.65828 84.47174,727.42368 81.742341,730.74309 78.926102,733.87225 72.883546,740.5862 69.413173,743.2335 61.283797,745.9433 56.666353,747.48244 48.486006,746.87184 44.570034,746.87184 43.022463,746.87184 41.364205,747.44659 39.927322,746.87184 38.087214,746.1358 36.745545,744.49686 35.28461,743.15767 30.148594,738.44965 27.069729,736.36648 25.999187,729.22953 25.448225,725.55646 25.999187,721.80119 25.999187,718.08703 25.999187,716.22994 25.999187,714.37286 25.999187,712.51577 25.999187,710.34917 25.66974,708.15738 25.999187,706.01597 26.6658,701.68299 29.40854,697.54809 31.570441,693.94492 32.144602,692.98799 32.429372,691.65837 33.427526,691.1593 34.534877,690.60562 35.903639,691.1593 37.141695,691.1593 37.760723,691.1593 38.445104,690.88246 38.99878,691.1593 39.9431,691.63146 47.082051,697.46366 47.355661,697.65909 50.079965,699.60502 52.896355,701.41994 55.712543,703.23035 57.230669,704.20629 58.886659,704.96698 60.355254,706.01597 65.938432,710.00396 60.972345,706.32161 62.212339,708.8016 62.408093,709.19311 62.898079,709.36594 63.140882,709.73014 63.524787,710.306 63.75991,710.9682 64.069424,711.58723 65.136385,713.72115 64.997966,712.75222 64.997966,714.37286 64.997966,714.68237 65.215354,715.08108 64.997966,715.3014 62.66925,717.66155 60.041069,719.70617 57.56262,721.90856"
               inkscape:connector-curvature="0" />
          </g>
          <g
             transform="translate(0,81.354851)"
             inkscape:label="#g4251"
             id="wood1">
            <rect
               style="opacity:1;fill:#4d4d4d;fill-opacity:1;fill-rule:nonzero;stroke:#000000;stroke-width:2;stroke-linecap:butt;stroke-linejoin:round;stroke-miterlimit:4;stroke-dasharray:none;stroke-dashoffset:0;stroke-opacity:1"
               id="rect4245-3"
               width="103.99674"
               height="73.354851"
               x="5.5642557"
               y="685.23114" />
            <path
               style="fill:none;fill-rule:evenodd;stroke:#000000;stroke-width:1px;stroke-linecap:butt;stroke-linejoin:miter;stroke-opacity:1"
               d="M 57.562619,758.58599 C 57.275819,754.23628 54.779541,750.08954 51.069831,747.80038 49.060324,746.56037 46.774193,745.86177 44.570034,745.01475 43.274546,744.51692 41.989408,743.95842 40.855865,743.15767 39.388914,742.12139 38.209989,740.69263 37.422813,739.07827 36.635636,737.4639 36.236925,735.66815 36.213153,733.87225 36.209056,733.56276 36.213153,733.25322 36.213153,732.9437 L 36.213153,731.08662 36.213153,727.37245 36.213153,724.58682 C 36.213153,724.27699 36.205588,723.96722 36.193302,723.65763 36.181017,723.34804 36.167899,723.03625 36.213153,722.72974 36.296067,722.16816 36.578073,721.65261 36.924318,721.20276 37.270562,720.75291 37.682355,720.3586 38.070237,719.94411 39.876306,718.01416 41.156584,715.65424 42.251911,713.24865 43.347237,710.84307 44.279297,708.36117 45.498576,706.01597 46.832358,703.45054 48.581997,700.98965 51.069831,699.51618 52.726324,698.53509 54.625463,698.04229 56.520912,697.70498 58.416361,697.36767 60.338746,697.17344 62.212339,696.73055 62.988677,696.54703 63.759896,696.32032 64.554827,696.25352 65.349758,696.18672 66.187447,696.29388 66.855051,696.73055 67.328809,697.04043 67.689779,697.49791 67.97405,697.98747 68.258321,698.47702 68.473004,699.00306 68.712136,699.51618 69.946779,702.1654 71.824313,704.4545 73.354848,706.94452 74.300159,708.48244 75.115465,710.10124 76.140475,711.58723 77.096411,712.97308 78.225406,714.22985 79.252195,715.56405 80.278984,716.89826 81.215673,718.33528 81.711729,719.94411 82.35775,722.03931 82.216283,724.31022 81.711729,726.44391 80.750239,730.50992 78.534956,734.16248 76.140475,737.58642 71.804337,743.7868 66.479979,749.7048 59.426712,752.44309 56.471709,753.59031 53.306927,754.1362 50.141288,754.30018 47.629091,754.43031 45.046277,754.31167 42.712949,753.37164 40.027774,752.28987 37.856258,750.18378 36.213153,747.80038 33.910716,744.46058 32.546134,740.55466 31.655655,736.59708 30.765176,732.63949 30.325192,728.59695 29.713356,724.58682 29.336775,722.11861 28.893872,719.65287 28.784814,717.15848 28.690169,714.99375 28.784814,712.82549 28.784814,710.65869 L 28.784814,708.8016 28.784814,705.08743 C 28.784814,704.62233 28.76987,704.15739 28.745614,703.69293 28.721359,703.22846 28.695622,702.75828 28.784814,702.30181 28.893361,701.74629 29.173856,701.23678 29.514264,700.78455 29.854672,700.33233 30.255941,699.93021 30.641898,699.51618 31.838601,698.23243 32.916361,696.80568 34.356068,695.80201 35.835754,694.77047 37.650109,694.24293 39.453765,694.26238 41.257421,694.28183 43.044144,694.84013 44.570034,695.80201 47.3737,697.56937 49.154499,700.52561 51.069831,703.23035 52.359552,705.05163 53.760038,706.81416 54.742254,708.81808 55.724471,710.822 56.265377,713.13927 55.712543,715.3014 55.367974,716.64901 54.623517,717.85589 53.855458,719.01557 51.422006,722.68981 48.639908,726.13862 45.498576,729.22953 40.875322,733.77858 35.212239,737.64518 28.784814,738.51496 26.969718,738.76058 25.105818,738.75994 23.323984,738.33571 21.542149,737.91148 19.842854,737.04725 18.570848,735.72933 17.605652,734.7293 16.904514,733.48854 16.470438,732.16821 16.036362,730.84789 15.864472,729.44898 15.886357,728.0593 15.930127,725.27996 16.734902,722.57152 17.642305,719.94411 21.119729,709.87512 26.529885,700.01385 35.28461,693.94492 38.056762,692.02322 41.207239,690.49416 44.570034,690.23075 46.42199,690.08569 48.283659,690.23075 50.141288,690.23075 L 55.712543,690.23075 62.212339,690.23075 C 62.677346,690.23075 63.142209,690.21668 63.606654,690.19383 64.0711,690.17098 64.540619,690.1467 64.997966,690.23075 65.556285,690.33336 66.074532,690.60011 66.53194,690.9363 66.989349,691.2725 67.391046,691.67777 67.783593,692.08784 70.827071,695.26717 73.434796,698.83047 76.140475,702.30181 79.581577,706.71668 83.24175,711.07613 85.425899,716.22994 85.808365,717.13242 86.144296,718.05818 86.354441,719.01557 86.688896,720.53929 86.697482,722.13647 86.354441,723.65828 85.884103,725.74482 84.770779,727.64147 83.421925,729.30143 82.073072,730.96138 80.486488,732.40936 78.926102,733.87225 76.296307,736.33773 73.715951,738.87046 70.845275,741.05074 67.974598,743.23102 64.779797,745.06444 61.283797,745.9433 55.860009,747.30678 50.132858,746.29604 44.570034,746.87184 43.019603,747.03232 41.422419,747.31261 39.927322,746.87184 38.963304,746.58764 38.104609,746.0164 37.354783,745.34718 36.604957,744.67795 35.952707,743.9085 35.28461,743.15767 33.402303,741.04227 31.372664,739.05222 29.644608,736.80904 27.916552,734.56587 26.480387,732.01995 25.999187,729.22953 25.683155,727.3969 25.774563,725.52128 25.86043,723.66358 25.946296,721.80588 25.999187,719.94671 25.999187,718.08703 L 25.999187,712.51577 C 25.999187,710.34764 25.736569,708.16814 25.999187,706.01597 26.269221,703.80303 27.264808,701.74641 28.37427,699.81273 29.483733,697.87905 30.727321,696.0087 31.570441,693.94492 31.786413,693.41627 31.976451,692.87421 32.256913,692.37676 32.537376,691.87931 32.920003,691.4211 33.427526,691.1593 33.986669,690.87088 34.645625,690.84545 35.271443,690.91011 35.897262,690.97477 36.5136,691.12288 37.141695,691.1593 37.7599,691.19515 38.380648,691.12221 38.99878,691.1593 39.905055,691.21367 40.788033,691.50568 41.585662,691.93936 42.383291,692.37304 43.098995,692.94588 43.75097,693.57772 45.05492,694.8414 46.108991,696.33887 47.355661,697.65909 49.67051,700.11051 52.612141,701.90541 55.712543,703.23035 56.551579,703.58891 57.40614,703.91592 58.212357,704.34319 59.018574,704.77046 59.782339,705.30582 60.355254,706.01597 61.057269,706.88614 61.448042,707.98559 62.212339,708.8016 62.511749,709.12127 62.86336,709.39129 63.140882,709.73014 63.581298,710.26788 63.808094,710.94316 64.069424,711.58723 64.438889,712.49781 64.898965,713.39518 64.997966,714.37286 65.029192,714.68123 65.023572,714.99251 64.997966,715.3014 64.846819,717.12476 63.97051,718.878 62.602853,720.09332 61.235195,721.30864 59.391108,721.97279 57.56262,721.90856"
               id="path4247-9"
               inkscape:path-effect="#path-effect4249-1"
               inkscape:original-d="M 57.562619,758.58599 C 55.398357,754.99079 53.971786,750.83158 51.069831,747.80038 49.439741,746.09769 46.71594,745.99017 44.570034,745.01475 43.309915,744.44197 41.77547,744.19222 40.855865,743.15767 39.092273,741.17363 36.975254,736.92065 36.213153,733.87225 36.138083,733.57197 36.213153,733.25322 36.213153,732.9437 36.213153,732.32468 36.213153,731.70565 36.213153,731.08662 36.213153,729.84856 36.213153,728.61051 36.213153,727.37245 36.213153,726.44391 36.213153,725.51536 36.213153,724.58682 36.213153,723.96779 35.983251,723.30449 36.213153,722.72974 36.627613,721.69359 37.571161,720.94226 38.070237,719.94411 42.301044,711.4825 39.241184,714.54878 45.498576,706.01597 47.186079,703.71483 48.747778,701.17479 51.069831,699.51618 55.578304,696.29584 57.763367,696.73055 62.212339,696.73055 63.75991,696.73055 65.432609,696.12093 66.855051,696.73055 67.880788,697.17015 68.112999,698.57468 68.712136,699.51618 70.279786,701.97963 71.824509,704.45772 73.354848,706.94452 74.300719,708.48156 75.164536,710.0691 76.140475,711.58723 77.950881,714.40342 80.5362,716.80937 81.711729,719.94411 82.472473,721.97276 82.136634,724.31938 81.711729,726.44391 80.713597,731.43457 79.148749,734.03118 76.140475,737.58642 71.131848,743.5057 66.768169,749.13944 59.426712,752.44309 56.548289,753.73838 53.292866,754.12509 50.141288,754.30018 47.649748,754.4386 44.974223,754.4269 42.712949,753.37164 40.127084,752.1649 37.796034,750.1747 36.213153,747.80038 31.242434,740.3443 30.929937,733.10289 29.713356,724.58682 29.360456,722.11652 28.950804,719.64834 28.784814,717.15848 28.640694,714.99668 28.784814,712.82528 28.784814,710.65869 28.784814,710.03966 28.784814,709.42063 28.784814,708.8016 28.784814,707.56355 28.784814,706.32549 28.784814,705.08743 28.784814,704.15889 28.491183,703.1827 28.784814,702.30181 29.137714,701.2431 29.915635,700.36348 30.641898,699.51618 31.781354,698.18681 32.899251,696.77322 34.356068,695.80201 37.767758,693.52755 40.997871,693.05419 44.570034,695.80201 47.17791,697.80807 49.095722,700.5982 51.069831,703.23035 54.336338,707.58569 56.87664,710.06296 55.712543,715.3014 55.41227,716.65263 54.674017,717.89935 53.855458,719.01557 51.254036,722.56296 48.609155,726.11896 45.498576,729.22953 39.179679,735.54843 36.864961,737.4376 28.784814,738.51496 24.896306,739.03343 21.047682,739.44458 18.570848,735.72933 15.737886,731.47989 16.352794,724.13502 17.642305,719.94411 20.803153,709.67135 26.710677,700.57024 35.28461,693.94492 37.922414,691.90662 41.335997,691.03926 44.570034,690.23075 46.371671,689.78034 48.284204,690.23075 50.141288,690.23075 51.998373,690.23075 53.855458,690.23075 55.712543,690.23075 57.879141,690.23075 60.04574,690.23075 62.212339,690.23075 63.140882,690.23075 64.117074,689.93712 64.997966,690.23075 66.056667,690.58365 67.026654,691.26782 67.783593,692.08784 70.767363,695.32026 73.544979,698.75007 76.140475,702.30181 79.432676,706.80692 82.516288,711.46876 85.425899,716.22994 85.936278,717.06511 86.233039,718.04436 86.354441,719.01557 86.546393,720.55119 87.046536,722.27409 86.354441,723.65828 84.47174,727.42368 81.742341,730.74309 78.926102,733.87225 72.883546,740.5862 69.413173,743.2335 61.283797,745.9433 56.666353,747.48244 48.486006,746.87184 44.570034,746.87184 43.022463,746.87184 41.364205,747.44659 39.927322,746.87184 38.087214,746.1358 36.745545,744.49686 35.28461,743.15767 30.148594,738.44965 27.069729,736.36648 25.999187,729.22953 25.448225,725.55646 25.999187,721.80119 25.999187,718.08703 25.999187,716.22994 25.999187,714.37286 25.999187,712.51577 25.999187,710.34917 25.66974,708.15738 25.999187,706.01597 26.6658,701.68299 29.40854,697.54809 31.570441,693.94492 32.144602,692.98799 32.429372,691.65837 33.427526,691.1593 34.534877,690.60562 35.903639,691.1593 37.141695,691.1593 37.760723,691.1593 38.445104,690.88246 38.99878,691.1593 39.9431,691.63146 47.082051,697.46366 47.355661,697.65909 50.079965,699.60502 52.896355,701.41994 55.712543,703.23035 57.230669,704.20629 58.886659,704.96698 60.355254,706.01597 65.938432,710.00396 60.972345,706.32161 62.212339,708.8016 62.408093,709.19311 62.898079,709.36594 63.140882,709.73014 63.524787,710.306 63.75991,710.9682 64.069424,711.58723 65.136385,713.72115 64.997966,712.75222 64.997966,714.37286 64.997966,714.68237 65.215354,715.08108 64.997966,715.3014 62.66925,717.66155 60.041069,719.70617 57.56262,721.90856"
               inkscape:connector-curvature="0" />
          </g>
        </g>
        <g
           id="foodGroup"
           inkscape:label="#g4206"
           transform="translate(4.7683715e-7,-3.8146977e-6)">
          <g
             inkscape:label="#g4251"
             id="wood0-3">
            <rect
               style="opacity:1;fill:#4d4d4d;fill-opacity:1;fill-rule:nonzero;stroke:#000000;stroke-width:2;stroke-linecap:butt;stroke-linejoin:round;stroke-miterlimit:4;stroke-dasharray:none;stroke-dashoffset:0;stroke-opacity:1"
               id="rect4245-1"
               width="103.99674"
               height="73.354851"
               x="5.5642557"
               y="685.23114" />
          </g>
          <g
             transform="translate(0,81.354851)"
             inkscape:label="#g4251"
             id="wood1-5">
            <rect
               style="opacity:1;fill:#4d4d4d;fill-opacity:1;fill-rule:nonzero;stroke:#000000;stroke-width:2;stroke-linecap:butt;stroke-linejoin:round;stroke-miterlimit:4;stroke-dasharray:none;stroke-dashoffset:0;stroke-opacity:1"
               id="rect4245-3-6"
               width="103.99674"
               height="73.354851"
               x="5.5642557"
               y="685.23114" />
            <text
               xml:space="preserve"
               style="font-style:normal;font-weight:normal;font-size:18px;line-height:161.00000143%;font-family:Sans;text-align:center;letter-spacing:0px;word-spacing:0px;text-anchor:middle;fill:#000000;fill-opacity:1;stroke:none;stroke-width:1px;stroke-linecap:butt;stroke-linejoin:miter;stroke-opacity:1"
               x="57.562637"
               y="640.55371"
               id="text4253"
               sodipodi:linespacing="161%"><tspan
                 sodipodi:role="line"
                 id="tspan4255"
                 x="57.562637"
                 y="640.55371">F</tspan></text>
            <text
               xml:space="preserve"
               style="font-style:normal;font-weight:normal;font-size:18px;line-height:161.00000143%;font-family:Sans;text-align:center;letter-spacing:0px;word-spacing:0px;text-anchor:middle;fill:#000000;fill-opacity:1;stroke:none;stroke-width:1px;stroke-linecap:butt;stroke-linejoin:miter;stroke-opacity:1"
               x="40.822769"
               y="725.39386"
               id="text4257"
               sodipodi:linespacing="161%"><tspan
                 sodipodi:role="line"
                 id="tspan4259"
                 x="40.822769"
                 y="725.39386">O</tspan></text>
          </g>
        </g>
      </g>
    </g>
  </g>
</svg>
