<?xml version="1.0" encoding="UTF-8" standalone="no"?>
<!-- Created with Inkscape (http://www.inkscape.org/) -->

<svg
   xmlns:dc="http://purl.org/dc/elements/1.1/"
   xmlns:cc="http://creativecommons.org/ns#"
   xmlns:rdf="http://www.w3.org/1999/02/22-rdf-syntax-ns#"
   xmlns:svg="http://www.w3.org/2000/svg"
   xmlns="http://www.w3.org/2000/svg"
   xmlns:sodipodi="http://sodipodi.sourceforge.net/DTD/sodipodi-0.dtd"
   xmlns:inkscape="http://www.inkscape.org/namespaces/inkscape"
   width="600"
   height="400"
   viewBox="0 0 600.00005 399.99998"
   id="svg2"
   version="1.1"
   inkscape:version="0.91 r13725"
   sodipodi:docname="play.svg">
  <defs
     id="defs4">
    <inkscape:path-effect
       effect="spiro"
       id="path-effect4249"
       is_visible="true" />
  </defs>
  <sodipodi:namedview
     id="base"
     pagecolor="#ffffff"
     bordercolor="#666666"
     borderopacity="1.0"
     inkscape:pageopacity="0.0"
     inkscape:pageshadow="2"
     inkscape:zoom="1.0769568"
     inkscape:cx="213.07742"
     inkscape:cy="193.71743"
     inkscape:document-units="px"
     inkscape:current-layer="layer1"
     showgrid="false"
     units="px"
     inkscape:window-width="1366"
     inkscape:window-height="706"
     inkscape:window-x="-8"
     inkscape:window-y="-8"
     inkscape:window-maximized="1"
     inkscape:snap-bbox="true"
     inkscape:bbox-nodes="true"
     inkscape:snap-bbox-edge-midpoints="true"
     inkscape:snap-bbox-midpoints="true"
     inkscape:bbox-paths="true"
     inkscape:object-paths="true"
     inkscape:snap-intersection-paths="true"
     inkscape:snap-smooth-nodes="true"
     inkscape:snap-midpoints="true"
     inkscape:object-nodes="true"
     inkscape:snap-object-midpoints="true"
     inkscape:snap-center="true"
     inkscape:snap-page="true"
     inkscape:snap-grids="false"
     inkscape:snap-to-guides="false"
     inkscape:snap-global="true" />
  <metadata
     id="metadata7">
    <rdf:RDF>
      <cc:Work
         rdf:about="">
        <dc:format>image/svg+xml</dc:format>
        <dc:type
           rdf:resource="http://purl.org/dc/dcmitype/StillImage" />
        <dc:title></dc:title>
      </cc:Work>
    </rdf:RDF>
  </metadata>
  <g
     inkscape:label="Layer 1"
     inkscape:groupmode="layer"
     id="layer1"
     transform="translate(0,-652.36231)">
    <g
       id="spawnMenu"
       inkscape:label="#g4255">
      <g
         inkscape:label="#g4232"
         id="asdf">
        <rect
           style="opacity:0.27399998;fill:#000000;fill-opacity:1;fill-rule:nonzero;stroke:none;stroke-width:3;stroke-linecap:butt;stroke-linejoin:round;stroke-miterlimit:4;stroke-dasharray:none;stroke-dashoffset:0;stroke-opacity:1"
           id="rect4136"
           width="113.28218"
           height="400"
           x="-1.9984014e-015"
           y="652.3623" />
        <rect
           inkscape:label="#rect4138"
           style="opacity:1;fill:#4d4d4d;fill-opacity:1;fill-rule:nonzero;stroke:none;stroke-width:3;stroke-linecap:butt;stroke-linejoin:round;stroke-miterlimit:4;stroke-dasharray:none;stroke-dashoffset:0;stroke-opacity:1"
           id="spawnMenuInOut"
           width="12.071051"
           height="400.20175"
           x="113.28218"
           y="652.3623" />
        <path
           style="fill:none;fill-rule:evenodd;stroke:#000000;stroke-width:0.28812498px;stroke-linecap:butt;stroke-linejoin:miter;stroke-opacity:1"
           d="m 113.28218,833.33471 12.32639,17.8668 -12.5505,15.64906 0.22411,-6.38737 8.06818,-9.58106 -8.06818,-11.80771 z"
           id="path4140"
           inkscape:connector-curvature="0"
           sodipodi:nodetypes="ccccccc" />
        <rect
           style="opacity:1;fill:#818181;fill-opacity:1;fill-rule:nonzero;stroke:#000000;stroke-width:1.93675005;stroke-linecap:butt;stroke-linejoin:round;stroke-miterlimit:4;stroke-dasharray:none;stroke-dashoffset:0;stroke-opacity:1"
           id="rect4174"
           width="58.625877"
           height="24.932131"
           x="-0.031625155"
           y="652.33063" />
        <text
           xml:space="preserve"
           style="font-style:normal;font-weight:normal;font-size:18px;line-height:161.00000143%;font-family:Sans;text-align:center;letter-spacing:0px;word-spacing:0px;text-anchor:middle;fill:#000000;fill-opacity:1;stroke:none;stroke-width:1px;stroke-linecap:butt;stroke-linejoin:miter;stroke-opacity:1"
           x="29.215395"
           y="671.49835"
           id="text4176"
           sodipodi:linespacing="161%"><tspan
             sodipodi:role="line"
             id="tspan4178"
             x="29.215395"
             y="671.49835">Wood</tspan></text>
        <rect
           style="opacity:1;fill:#818181;fill-opacity:1;fill-rule:nonzero;stroke:#000000;stroke-width:1.82618833;stroke-linecap:butt;stroke-linejoin:round;stroke-miterlimit:4;stroke-dasharray:none;stroke-dashoffset:0;stroke-opacity:1"
           id="rect4174-1"
           width="51.893368"
           height="25.042694"
           x="60.475723"
           y="652.26556" />
        <text
           xml:space="preserve"
           style="font-style:normal;font-weight:normal;font-size:18px;line-height:161.00000143%;font-family:Sans;text-align:center;letter-spacing:0px;word-spacing:0px;text-anchor:middle;fill:#000000;fill-opacity:1;stroke:none;stroke-width:1px;stroke-linecap:butt;stroke-linejoin:miter;stroke-opacity:1"
           x="86.356491"
           y="671.48859"
           id="text4176-0"
           sodipodi:linespacing="161%"><tspan
             sodipodi:role="line"
             id="tspan4178-1"
             x="86.356491"
             y="671.48859">Food</tspan></text>
      </g>
      <g
         inkscape:label="#g4251"
         id="wood1">
        <rect
           style="opacity:0.38900003;fill:#4d4d4d;fill-opacity:1;fill-rule:nonzero;stroke:#000000;stroke-width:2;stroke-linecap:butt;stroke-linejoin:round;stroke-miterlimit:4;stroke-dasharray:none;stroke-dashoffset:0;stroke-opacity:1"
           id="rect4245"
           width="103.99674"
           height="73.354851"
           x="5.5642557"
           y="685.23114" />
        <path
           style="fill:none;fill-rule:evenodd;stroke:#000000;stroke-width:1px;stroke-linecap:butt;stroke-linejoin:miter;stroke-opacity:1"
           d="m 57.562619,758.58599 c -0.2868,-4.34971 -2.783078,-8.49645 -6.492788,-10.78561 -2.009507,-1.24001 -4.295638,-1.93861 -6.499797,-2.78563 -1.295488,-0.49783 -2.580626,-1.05633 -3.714169,-1.85708 -1.466951,-1.03628 -2.645876,-2.46504 -3.433052,-4.0794 -0.787177,-1.61437 -1.185888,-3.41012 -1.20966,-5.20602 -0.0041,-0.30949 0,-0.61903 0,-0.92855 l 0,-1.85708 0,-3.71417 0,-2.78563 c 0,-0.30983 -0.0076,-0.6196 -0.01985,-0.92919 -0.01229,-0.30959 -0.0254,-0.62138 0.01985,-0.92789 0.08291,-0.56158 0.36492,-1.07713 0.711165,-1.52698 0.346244,-0.44985 0.758037,-0.84416 1.145919,-1.25865 1.806069,-1.92995 3.086347,-4.28987 4.181674,-6.69546 1.095326,-2.40558 2.027386,-4.88748 3.246665,-7.23268 1.333782,-2.56543 3.083421,-5.02632 5.571255,-6.49979 1.656493,-0.98109 3.555632,-1.47389 5.451081,-1.8112 1.895449,-0.33731 3.817834,-0.53154 5.691427,-0.97443 0.776338,-0.18352 1.547557,-0.41023 2.342488,-0.47703 0.794931,-0.0668 1.63262,0.0404 2.300224,0.47703 0.473758,0.30988 0.834728,0.76736 1.118999,1.25692 0.284271,0.48955 0.498954,1.01559 0.738086,1.52871 1.234643,2.64922 3.112177,4.93832 4.642712,7.42834 0.945311,1.53792 1.760617,3.15672 2.785627,4.64271 0.955936,1.38585 2.084931,2.64262 3.11172,3.97682 1.026789,1.33421 1.963478,2.77123 2.459534,4.38006 0.646021,2.0952 0.504554,4.36611 0,6.4998 -0.96149,4.06601 -3.176773,7.71857 -5.571254,11.14251 -4.336138,6.20038 -9.660496,12.11838 -16.713763,14.85667 -2.955003,1.14722 -6.119785,1.69311 -9.285424,1.85709 -2.512197,0.13013 -5.095011,0.0115 -7.428339,-0.92854 -2.685175,-1.08177 -4.856691,-3.18786 -6.499796,-5.57126 -2.302437,-3.3398 -3.667019,-7.24572 -4.557498,-11.2033 -0.890479,-3.95759 -1.330463,-8.00013 -1.942299,-12.01026 -0.376581,-2.46821 -0.819484,-4.93395 -0.928542,-7.42834 -0.09464,-2.16473 0,-4.33299 0,-6.49979 l 0,-1.85709 0,-3.71417 c 0,-0.4651 -0.01494,-0.93004 -0.0392,-1.3945 -0.02426,-0.46447 -0.04999,-0.93465 0.0392,-1.39112 0.108547,-0.55552 0.389042,-1.06503 0.72945,-1.51726 0.340408,-0.45222 0.741677,-0.85434 1.127634,-1.26837 1.196703,-1.28375 2.274463,-2.7105 3.71417,-3.71417 1.479686,-1.03154 3.294041,-1.55908 5.097697,-1.53963 1.803656,0.0195 3.590379,0.57775 5.116269,1.53963 2.803666,1.76736 4.584465,4.7236 6.499797,7.42834 1.289721,1.82128 2.690207,3.58381 3.672423,5.58773 0.982217,2.00392 1.523123,4.32119 0.970289,6.48332 -0.344569,1.34761 -1.089026,2.55449 -1.857085,3.71417 -2.433452,3.67424 -5.21555,7.12305 -8.356882,10.21396 -4.623254,4.54905 -10.286337,8.41565 -16.713762,9.28543 -1.815096,0.24562 -3.678996,0.24498 -5.46083,-0.17925 -1.781835,-0.42423 -3.48113,-1.28846 -4.753136,-2.60638 -0.965196,-1.00003 -1.666334,-2.24079 -2.10041,-3.56112 -0.434076,-1.32032 -0.605966,-2.71923 -0.584081,-4.10891 0.04377,-2.77934 0.848545,-5.48778 1.755948,-8.11519 3.477424,-10.06899 8.88758,-19.93026 17.642305,-25.99919 2.772152,-1.9217 5.922629,-3.45076 9.285424,-3.71417 1.851956,-0.14506 3.713625,0 5.571254,0 l 5.571255,0 6.499796,0 c 0.465007,0 0.92987,-0.0141 1.394315,-0.0369 0.464446,-0.0229 0.933965,-0.0471 1.391312,0.0369 0.558319,0.10261 1.076566,0.36936 1.533974,0.70555 0.457409,0.3362 0.859106,0.74147 1.251653,1.15154 3.043478,3.17933 5.651203,6.74263 8.356882,10.21397 3.441102,4.41487 7.101275,8.77432 9.285424,13.92813 0.382466,0.90248 0.718397,1.82824 0.928542,2.78563 0.334455,1.52372 0.343041,3.1209 0,4.64271 -0.470338,2.08654 -1.583662,3.98319 -2.932516,5.64315 -1.348853,1.65995 -2.935437,3.10793 -4.495823,4.57082 -2.629795,2.46548 -5.210151,4.99821 -8.080827,7.17849 -2.870677,2.18028 -6.065478,4.0137 -9.561478,4.89256 -5.423788,1.36348 -11.150939,0.35274 -16.713763,0.92854 -1.550431,0.16048 -3.147615,0.44077 -4.642712,0 -0.964018,-0.2842 -1.822713,-0.85544 -2.572539,-1.52466 -0.749826,-0.66923 -1.402076,-1.43868 -2.070173,-2.18951 -1.882307,-2.1154 -3.911946,-4.10545 -5.640002,-6.34863 -1.728056,-2.24317 -3.164221,-4.78909 -3.645421,-7.57951 -0.316032,-1.83263 -0.224624,-3.70825 -0.138757,-5.56595 0.08587,-1.8577 0.138757,-3.71687 0.138757,-5.57655 l 0,-5.57126 c 0,-2.16813 -0.262618,-4.34763 0,-6.4998 0.270034,-2.21294 1.265621,-4.26956 2.375083,-6.20324 1.109463,-1.93368 2.353051,-3.80403 3.196171,-5.86781 0.215972,-0.52865 0.40601,-1.07071 0.686472,-1.56816 0.280463,-0.49745 0.66309,-0.95566 1.170613,-1.21746 0.559143,-0.28842 1.218099,-0.31385 1.843917,-0.24919 0.625819,0.0647 1.242157,0.21277 1.870252,0.24919 0.618205,0.0358 1.238953,-0.0371 1.857085,0 0.906275,0.0544 1.789253,0.34638 2.586882,0.78006 0.797629,0.43368 1.513333,1.00652 2.165308,1.63836 1.30395,1.26368 2.358021,2.76115 3.604691,4.08137 2.314849,2.45142 5.25648,4.24632 8.356882,5.57126 0.839036,0.35856 1.693597,0.68557 2.499814,1.11284 0.806217,0.42727 1.569982,0.96263 2.142897,1.67278 0.702015,0.87017 1.092788,1.96962 1.857085,2.78563 0.29941,0.31967 0.651021,0.58969 0.928543,0.92854 0.440416,0.53774 0.667212,1.21302 0.928542,1.85709 0.369465,0.91058 0.829541,1.80795 0.928542,2.78563 0.03123,0.30837 0.02561,0.61965 0,0.92854 -0.151147,1.82336 -1.027456,3.5766 -2.395113,4.79192 -1.367658,1.21532 -3.211745,1.87947 -5.040233,1.81524"
           id="path4247"
           inkscape:path-effect="#path-effect4249"
           inkscape:original-d="m 57.562619,758.58599 c -2.164262,-3.5952 -3.590833,-7.75441 -6.492788,-10.78561 -1.63009,-1.70269 -4.353891,-1.81021 -6.499797,-2.78563 -1.260119,-0.57278 -2.794564,-0.82253 -3.714169,-1.85708 -1.763592,-1.98404 -3.880611,-6.23702 -4.642712,-9.28542 -0.07507,-0.30028 0,-0.61903 0,-0.92855 0,-0.61902 0,-1.23805 0,-1.85708 0,-1.23806 0,-2.47611 0,-3.71417 0,-0.92854 0,-1.85709 0,-2.78563 0,-0.61903 -0.229902,-1.28233 0,-1.85708 0.41446,-1.03615 1.358008,-1.78748 1.857084,-2.78563 4.230807,-8.46161 1.170947,-5.39533 7.428339,-13.92814 1.687503,-2.30114 3.249202,-4.84118 5.571255,-6.49979 4.508473,-3.22034 6.693536,-2.78563 11.142508,-2.78563 1.547571,0 3.22027,-0.60962 4.642712,0 1.025737,0.4396 1.257948,1.84413 1.857085,2.78563 1.56765,2.46345 3.112373,4.94154 4.642712,7.42834 0.945871,1.53704 1.809688,3.12458 2.785627,4.64271 1.810406,2.81619 4.395725,5.22214 5.571254,8.35688 0.760744,2.02865 0.424905,4.37527 0,6.4998 -0.998132,4.99066 -2.56298,7.58727 -5.571254,11.14251 -5.008627,5.91928 -9.372306,11.55302 -16.713763,14.85667 -2.878423,1.29529 -6.133846,1.682 -9.285424,1.85709 -2.49154,0.13842 -5.167065,0.12672 -7.428339,-0.92854 -2.585865,-1.20674 -4.916915,-3.19694 -6.499796,-5.57126 -4.970719,-7.45608 -5.283216,-14.69749 -6.499797,-23.21356 -0.3529,-2.4703 -0.762552,-4.93848 -0.928542,-7.42834 -0.14412,-2.1618 0,-4.3332 0,-6.49979 0,-0.61903 0,-1.23806 0,-1.85709 0,-1.23805 0,-2.47611 0,-3.71417 0,-0.92854 -0.293631,-1.90473 0,-2.78562 0.3529,-1.05871 1.130821,-1.93833 1.857084,-2.78563 1.139456,-1.32937 2.257353,-2.74296 3.71417,-3.71417 3.41169,-2.27446 6.641803,-2.74782 10.213966,0 2.607876,2.00606 4.525688,4.79619 6.499797,7.42834 3.266507,4.35534 5.806809,6.83261 4.642712,12.07105 -0.300273,1.35123 -1.038526,2.59795 -1.857085,3.71417 -2.601422,3.54739 -5.246303,7.10339 -8.356882,10.21396 -6.318897,6.3189 -8.633615,8.20807 -16.713762,9.28543 -3.888508,0.51847 -7.737132,0.92962 -10.213966,-2.78563 -2.832962,-4.24944 -2.218054,-11.59431 -0.928543,-15.78522 3.160848,-10.27276 9.068372,-19.37387 17.642305,-25.99919 2.637804,-2.0383 6.051387,-2.90566 9.285424,-3.71417 1.801637,-0.45041 3.71417,0 5.571254,0 1.857085,0 3.71417,0 5.571255,0 2.166598,0 4.333197,0 6.499796,0 0.928543,0 1.904735,-0.29363 2.785627,0 1.058701,0.3529 2.028688,1.03707 2.785627,1.85709 2.98377,3.23242 5.761386,6.66223 8.356882,10.21397 3.292201,4.50511 6.375813,9.16695 9.285424,13.92813 0.510379,0.83517 0.80714,1.81442 0.928542,2.78563 0.191952,1.53562 0.692095,3.25852 0,4.64271 -1.882701,3.7654 -4.6121,7.08481 -7.428339,10.21397 -6.042556,6.71395 -9.512929,9.36125 -17.642305,12.07105 -4.617444,1.53914 -12.797791,0.92854 -16.713763,0.92854 -1.547571,0 -3.205829,0.57475 -4.642712,0 -1.840108,-0.73604 -3.181777,-2.37498 -4.642712,-3.71417 -5.136016,-4.70802 -8.214881,-6.79119 -9.285423,-13.92814 -0.550962,-3.67307 0,-7.42834 0,-11.1425 0,-1.85709 0,-3.71417 0,-5.57126 0,-2.1666 -0.329447,-4.35839 0,-6.4998 0.666613,-4.33298 3.409353,-8.46788 5.571254,-12.07105 0.574161,-0.95693 0.858931,-2.28655 1.857085,-2.78562 1.107351,-0.55368 2.476113,0 3.714169,0 0.619028,0 1.303409,-0.27684 1.857085,0 0.94432,0.47216 8.083271,6.30436 8.356881,6.49979 2.724304,1.94593 5.540694,3.76085 8.356882,5.57126 1.518126,0.97594 3.174116,1.73663 4.642711,2.78562 5.583178,3.98799 0.617091,0.30564 1.857085,2.78563 0.195754,0.39151 0.68574,0.56434 0.928543,0.92854 0.383905,0.57586 0.619028,1.23806 0.928542,1.85709 1.066961,2.13392 0.928542,1.16499 0.928542,2.78563 0,0.30951 0.217388,0.70822 0,0.92854 -2.328716,2.36015 -4.956897,4.40477 -7.435346,6.60716"
           inkscape:connector-curvature="0" />
      </g>
    </g>
  </g>
</svg>
